<mxfile host="app.diagrams.net" modified="2024-04-25T20:25:53.876Z" agent="Mozilla/5.0 (Macintosh; Intel Mac OS X 10_15_7) AppleWebKit/537.36 (KHTML, like Gecko) Chrome/124.0.0.0 Safari/537.36" etag="7_30PFQAK1z-FmpPbfZE" version="24.3.0" type="device">
  <diagram name="Page-1" id="gwWW5qYEmwtvHHpLXWfl">
    <mxGraphModel dx="954" dy="530" grid="1" gridSize="10" guides="1" tooltips="1" connect="1" arrows="1" fold="1" page="1" pageScale="1" pageWidth="850" pageHeight="1100" math="0" shadow="0">
      <root>
        <mxCell id="0" />
        <mxCell id="1" parent="0" />
        <mxCell id="CKOT-aXlZ0dPNa5fgrMw-13" value="accès website" style="ellipse;whiteSpace=wrap;html=1;" parent="1" vertex="1">
          <mxGeometry x="340" y="301.25" width="130" height="37.5" as="geometry" />
        </mxCell>
        <mxCell id="CKOT-aXlZ0dPNa5fgrMw-94" value="" style="text;strokeColor=none;fillColor=none;align=left;verticalAlign=middle;spacingTop=-1;spacingLeft=4;spacingRight=4;rotatable=0;labelPosition=right;points=[];portConstraint=eastwest;" parent="1" vertex="1">
          <mxGeometry x="350" y="352.5" width="20" height="14" as="geometry" />
        </mxCell>
        <mxCell id="CKOT-aXlZ0dPNa5fgrMw-99" value="Visiteur" style="shape=umlActor;verticalLabelPosition=bottom;verticalAlign=top;html=1;" parent="1" vertex="1">
          <mxGeometry x="560" y="290" width="30" height="60" as="geometry" />
        </mxCell>
        <mxCell id="CKOT-aXlZ0dPNa5fgrMw-102" value="" style="line;strokeWidth=1;fillColor=none;align=left;verticalAlign=middle;spacingTop=-1;spacingLeft=3;spacingRight=3;rotatable=0;labelPosition=right;points=[];portConstraint=eastwest;strokeColor=inherit;" parent="1" vertex="1">
          <mxGeometry x="470" y="316" width="90" height="8" as="geometry" />
        </mxCell>
        <mxCell id="V9B6BVtNl_yBv-96Tn6v-8" value="&amp;lt;&amp;lt;extend&amp;gt;&amp;gt;" style="html=1;verticalAlign=bottom;endArrow=open;dashed=1;endSize=8;curved=0;rounded=0;" parent="1" edge="1">
          <mxGeometry relative="1" as="geometry">
            <mxPoint x="410" y="402.75" as="sourcePoint" />
            <mxPoint x="410" y="338.75" as="targetPoint" />
          </mxGeometry>
        </mxCell>
        <mxCell id="V9B6BVtNl_yBv-96Tn6v-10" value="achat" style="ellipse;whiteSpace=wrap;html=1;" parent="1" vertex="1">
          <mxGeometry x="350" y="399.51" width="130" height="37.5" as="geometry" />
        </mxCell>
        <mxCell id="V9B6BVtNl_yBv-96Tn6v-11" value="inscription" style="ellipse;whiteSpace=wrap;html=1;" parent="1" vertex="1">
          <mxGeometry x="130" y="399.51" width="130" height="37.5" as="geometry" />
        </mxCell>
        <mxCell id="V9B6BVtNl_yBv-96Tn6v-15" value="authentification" style="ellipse;whiteSpace=wrap;html=1;" parent="1" vertex="1">
          <mxGeometry x="130" y="482" width="130" height="37.5" as="geometry" />
        </mxCell>
        <mxCell id="V9B6BVtNl_yBv-96Tn6v-16" value="&amp;lt;&amp;lt;include&amp;gt;&amp;gt;" style="html=1;verticalAlign=bottom;endArrow=open;dashed=1;endSize=8;curved=0;rounded=0;exitX=0.5;exitY=1;exitDx=0;exitDy=0;entryX=0.5;entryY=0;entryDx=0;entryDy=0;" parent="1" source="V9B6BVtNl_yBv-96Tn6v-11" target="V9B6BVtNl_yBv-96Tn6v-15" edge="1">
          <mxGeometry relative="1" as="geometry">
            <mxPoint x="250" y="470" as="sourcePoint" />
            <mxPoint x="160" y="470" as="targetPoint" />
          </mxGeometry>
        </mxCell>
        <mxCell id="V9B6BVtNl_yBv-96Tn6v-17" value="&amp;lt;&amp;lt;include&amp;gt;&amp;gt;" style="html=1;verticalAlign=bottom;endArrow=open;dashed=1;endSize=8;curved=0;rounded=0;exitX=0;exitY=0.5;exitDx=0;exitDy=0;entryX=1;entryY=0.5;entryDx=0;entryDy=0;" parent="1" source="V9B6BVtNl_yBv-96Tn6v-10" target="V9B6BVtNl_yBv-96Tn6v-11" edge="1">
          <mxGeometry relative="1" as="geometry">
            <mxPoint x="205" y="447" as="sourcePoint" />
            <mxPoint x="205" y="490" as="targetPoint" />
          </mxGeometry>
        </mxCell>
        <mxCell id="V9B6BVtNl_yBv-96Tn6v-21" value="sélectionné produit" style="ellipse;whiteSpace=wrap;html=1;" parent="1" vertex="1">
          <mxGeometry x="480" y="157.5" width="130" height="37.5" as="geometry" />
        </mxCell>
        <mxCell id="V9B6BVtNl_yBv-96Tn6v-24" value="&amp;lt;&amp;lt;extend&amp;gt;&amp;gt;" style="html=1;verticalAlign=bottom;endArrow=open;dashed=1;endSize=8;curved=0;rounded=0;entryX=0;entryY=1;entryDx=0;entryDy=0;" parent="1" edge="1" target="V9B6BVtNl_yBv-96Tn6v-21" source="CKOT-aXlZ0dPNa5fgrMw-13">
          <mxGeometry relative="1" as="geometry">
            <mxPoint x="404.5" y="294" as="sourcePoint" />
            <mxPoint x="404.5" y="230" as="targetPoint" />
          </mxGeometry>
        </mxCell>
        <mxCell id="V9B6BVtNl_yBv-96Tn6v-25" value="detail produit" style="ellipse;whiteSpace=wrap;html=1;" parent="1" vertex="1">
          <mxGeometry x="480" y="110" width="130" height="37.5" as="geometry" />
        </mxCell>
        <mxCell id="GkidexrtlgJMCOC9RiAd-1" value="rôle user" style="ellipse;whiteSpace=wrap;html=1;" parent="1" vertex="1">
          <mxGeometry x="130" y="562" width="130" height="37.5" as="geometry" />
        </mxCell>
        <mxCell id="GkidexrtlgJMCOC9RiAd-2" value="&amp;lt;&amp;lt;include&amp;gt;&amp;gt;" style="html=1;verticalAlign=bottom;endArrow=open;dashed=1;endSize=8;curved=0;rounded=0;exitX=0.5;exitY=1;exitDx=0;exitDy=0;entryX=0.5;entryY=0;entryDx=0;entryDy=0;" parent="1" edge="1">
          <mxGeometry relative="1" as="geometry">
            <mxPoint x="194" y="518" as="sourcePoint" />
            <mxPoint x="194" y="563" as="targetPoint" />
          </mxGeometry>
        </mxCell>
        <mxCell id="IyKJ_l_gL5b1-zuFa62F-2" value="consulter un produit" style="ellipse;whiteSpace=wrap;html=1;" vertex="1" parent="1">
          <mxGeometry x="480" y="210" width="130" height="37.5" as="geometry" />
        </mxCell>
        <mxCell id="IyKJ_l_gL5b1-zuFa62F-3" value="ajouter un produit au panier" style="ellipse;whiteSpace=wrap;html=1;" vertex="1" parent="1">
          <mxGeometry x="330" y="100" width="140" height="47.5" as="geometry" />
        </mxCell>
        <mxCell id="IyKJ_l_gL5b1-zuFa62F-4" value="consulter le panier" style="ellipse;whiteSpace=wrap;html=1;" vertex="1" parent="1">
          <mxGeometry x="180" y="152.5" width="140" height="47.5" as="geometry" />
        </mxCell>
        <mxCell id="IyKJ_l_gL5b1-zuFa62F-5" value="modifier le panier" style="ellipse;whiteSpace=wrap;html=1;" vertex="1" parent="1">
          <mxGeometry x="110" y="230" width="140" height="47.5" as="geometry" />
        </mxCell>
        <mxCell id="IyKJ_l_gL5b1-zuFa62F-6" value="&amp;lt;&amp;lt;extend&amp;gt;&amp;gt;" style="html=1;verticalAlign=bottom;endArrow=open;dashed=1;endSize=8;curved=0;rounded=0;entryX=0;entryY=1;entryDx=0;entryDy=0;" edge="1" parent="1" target="V9B6BVtNl_yBv-96Tn6v-25">
          <mxGeometry relative="1" as="geometry">
            <mxPoint x="400.5" y="301.25" as="sourcePoint" />
            <mxPoint x="400" y="258.75" as="targetPoint" />
          </mxGeometry>
        </mxCell>
        <mxCell id="IyKJ_l_gL5b1-zuFa62F-7" value="&amp;lt;&amp;lt;extend&amp;gt;&amp;gt;" style="html=1;verticalAlign=bottom;endArrow=open;dashed=1;endSize=8;curved=0;rounded=0;" edge="1" parent="1" target="IyKJ_l_gL5b1-zuFa62F-2">
          <mxGeometry relative="1" as="geometry">
            <mxPoint x="450" y="307" as="sourcePoint" />
            <mxPoint x="510" y="247" as="targetPoint" />
          </mxGeometry>
        </mxCell>
        <mxCell id="IyKJ_l_gL5b1-zuFa62F-10" value="&amp;lt;&amp;lt;extend&amp;gt;&amp;gt;" style="html=1;verticalAlign=bottom;endArrow=open;dashed=1;endSize=8;curved=0;rounded=0;entryX=0.5;entryY=1;entryDx=0;entryDy=0;exitX=0.369;exitY=0.02;exitDx=0;exitDy=0;exitPerimeter=0;" edge="1" parent="1" source="CKOT-aXlZ0dPNa5fgrMw-13" target="IyKJ_l_gL5b1-zuFa62F-3">
          <mxGeometry relative="1" as="geometry">
            <mxPoint x="410.5" y="311.25" as="sourcePoint" />
            <mxPoint x="508" y="152" as="targetPoint" />
          </mxGeometry>
        </mxCell>
        <mxCell id="IyKJ_l_gL5b1-zuFa62F-11" value="&amp;lt;&amp;lt;extend&amp;gt;&amp;gt;" style="html=1;verticalAlign=bottom;endArrow=open;dashed=1;endSize=8;curved=0;rounded=0;exitX=0.254;exitY=0.073;exitDx=0;exitDy=0;exitPerimeter=0;" edge="1" parent="1" source="CKOT-aXlZ0dPNa5fgrMw-13" target="IyKJ_l_gL5b1-zuFa62F-4">
          <mxGeometry relative="1" as="geometry">
            <mxPoint x="398" y="312" as="sourcePoint" />
            <mxPoint x="410" y="158" as="targetPoint" />
          </mxGeometry>
        </mxCell>
        <mxCell id="IyKJ_l_gL5b1-zuFa62F-12" value="&amp;lt;&amp;lt;extend&amp;gt;&amp;gt;" style="html=1;verticalAlign=bottom;endArrow=open;dashed=1;endSize=8;curved=0;rounded=0;exitX=0;exitY=0.5;exitDx=0;exitDy=0;" edge="1" parent="1" source="CKOT-aXlZ0dPNa5fgrMw-13">
          <mxGeometry relative="1" as="geometry">
            <mxPoint x="330" y="372.5" as="sourcePoint" />
            <mxPoint x="229" y="267.5" as="targetPoint" />
          </mxGeometry>
        </mxCell>
      </root>
    </mxGraphModel>
  </diagram>
</mxfile>
